# xmcd
#
# Track frame offsets:
#	150
#	26687
#	79767
#	138095
#	171602
#
# Disc length: 3057 seconds
#
# Revision: 1
# Processed by: cddbd v1.5.2PL0 Copyright (c) Steve Scherf et al.
# Submitted via: audiograbber 1.83.01
#
DISCID=3b0bef05
DTITLE=Grateful Dead - 84-12-31 San Francisco Civic Auditorium, San Francisco C
DTITLE=A
DYEAR=1900
DGENRE=
TTITLE0=Sugar Magnolia
TTITLE1=Scarlet Begonias
TTITLE2=Fire On The Mountain
TTITLE3=Men Smart Women Smarter
TTITLE4=Drums
EXTD=
EXTT0=
EXTT1=
EXTT2=
EXTT3=
EXTT4=
PLAYORDER=
